<?xml version="1.0" encoding="utf-8" standalone="no"?>
<!DOCTYPE svg PUBLIC "-//W3C//DTD SVG 1.1//EN"
  "http://www.w3.org/Graphics/SVG/1.1/DTD/svg11.dtd">
<!-- Created with matplotlib (https://matplotlib.org/) -->
<svg height="576pt" version="1.1" viewBox="0 0 576 576" width="576pt" xmlns="http://www.w3.org/2000/svg" xmlns:xlink="http://www.w3.org/1999/xlink">
 <metadata>
  <rdf:RDF xmlns:cc="http://creativecommons.org/ns#" xmlns:dc="http://purl.org/dc/elements/1.1/" xmlns:rdf="http://www.w3.org/1999/02/22-rdf-syntax-ns#">
   <cc:Work>
    <dc:type rdf:resource="http://purl.org/dc/dcmitype/StillImage"/>
    <dc:date>2021-03-09T19:56:07.344996</dc:date>
    <dc:format>image/svg+xml</dc:format>
    <dc:creator>
     <cc:Agent>
      <dc:title>Matplotlib v3.3.4, https://matplotlib.org/</dc:title>
     </cc:Agent>
    </dc:creator>
   </cc:Work>
  </rdf:RDF>
 </metadata>
 <defs>
  <style type="text/css">*{stroke-linecap:butt;stroke-linejoin:round;}</style>
 </defs>
 <g id="figure_1">
  <g id="patch_1">
   <path d="M 0 576 
L 576 576 
L 576 0 
L 0 0 
z
" style="fill:none;"/>
  </g>
  <g id="axes_1">
   <g id="patch_2">
    <path d="M 72 504 
L 518.4 504 
L 518.4 69.12 
L 72 69.12 
z
" style="fill:none;"/>
   </g>
   <g id="matplotlib.axis_1">
    <g id="xtick_1">
     <g id="line2d_1">
      <path clip-path="url(#p74352da0a6)" d="M 92.290909 504 
L 92.290909 69.12 
" style="fill:none;stroke:#ffffff;stroke-dasharray:0.8,1.32;stroke-dashoffset:0;stroke-width:0.8;"/>
     </g>
     <g id="line2d_2">
      <defs>
       <path d="M 0 0 
L 0 3.5 
" id="me92d7855a9" style="stroke:#ffffff;stroke-width:0.8;"/>
      </defs>
      <g>
       <use style="fill:#ffffff;stroke:#ffffff;stroke-width:0.8;" x="92.290909" xlink:href="#me92d7855a9" y="504"/>
      </g>
     </g>
     <g id="text_1">
      <!-- 0.0 -->
      <g style="fill:#ffffff;" transform="translate(81.488097 519.69625)scale(0.12 -0.12)">
       <defs>
        <path d="M 53.859375 32.953125 
Q 53.859375 16.453125 47.78125 7.734375 
Q 41.703125 -0.984375 29.828125 -0.984375 
Q 17.96875 -0.984375 12.015625 7.6875 
Q 6.0625 16.359375 6.0625 32.953125 
Q 6.0625 50 11.859375 58.4375 
Q 17.671875 66.890625 30.125 66.890625 
Q 42.28125 66.890625 48.0625 58.375 
Q 53.859375 49.859375 53.859375 32.953125 
z
M 44.921875 32.953125 
Q 44.921875 47.125 41.46875 53.4375 
Q 38.03125 59.765625 30.125 59.765625 
Q 22.015625 59.765625 18.46875 53.515625 
Q 14.9375 47.265625 14.9375 32.953125 
Q 14.9375 19.046875 18.53125 12.625 
Q 22.125 6.203125 29.9375 6.203125 
Q 37.703125 6.203125 41.3125 12.796875 
Q 44.921875 19.390625 44.921875 32.953125 
z
M 24.21875 27.09375 
L 24.21875 39.265625 
L 35.6875 39.265625 
L 35.6875 27.09375 
z
" id="LiberationMono-48"/>
        <path d="M 24.21875 0 
L 24.21875 14.59375 
L 35.6875 14.59375 
L 35.6875 0 
z
" id="LiberationMono-46"/>
       </defs>
       <use xlink:href="#LiberationMono-48"/>
       <use x="60.009766" xlink:href="#LiberationMono-46"/>
       <use x="120.019531" xlink:href="#LiberationMono-48"/>
      </g>
     </g>
    </g>
    <g id="xtick_2">
     <g id="line2d_3">
      <path clip-path="url(#p74352da0a6)" d="M 173.454545 504 
L 173.454545 69.12 
" style="fill:none;stroke:#ffffff;stroke-dasharray:0.8,1.32;stroke-dashoffset:0;stroke-width:0.8;"/>
     </g>
     <g id="line2d_4">
      <g>
       <use style="fill:#ffffff;stroke:#ffffff;stroke-width:0.8;" x="173.454545" xlink:href="#me92d7855a9" y="504"/>
      </g>
     </g>
     <g id="text_2">
      <!-- 0.2 -->
      <g style="fill:#ffffff;" transform="translate(162.651733 519.69625)scale(0.12 -0.12)">
       <defs>
        <path d="M 7.03125 0 
L 7.03125 5.71875 
Q 9.421875 11.03125 14.46875 16.421875 
Q 19.53125 21.828125 28.21875 28.765625 
Q 35.984375 34.96875 39.40625 39.546875 
Q 42.828125 44.140625 42.828125 48.390625 
Q 42.828125 53.8125 39.453125 56.734375 
Q 36.078125 59.671875 29.828125 59.671875 
Q 24.265625 59.671875 20.828125 56.609375 
Q 17.390625 53.5625 16.75 48.046875 
L 7.765625 48.875 
Q 8.734375 57.171875 14.546875 62.03125 
Q 20.359375 66.890625 29.828125 66.890625 
Q 40.234375 66.890625 46.046875 62.203125 
Q 51.859375 57.515625 51.859375 48.921875 
Q 51.859375 43.3125 48.140625 37.71875 
Q 44.4375 32.125 37.0625 26.265625 
Q 27 18.265625 23.109375 14.46875 
Q 19.234375 10.6875 17.625 7.125 
L 52.9375 7.125 
L 52.9375 0 
z
" id="LiberationMono-50"/>
       </defs>
       <use xlink:href="#LiberationMono-48"/>
       <use x="60.009766" xlink:href="#LiberationMono-46"/>
       <use x="120.019531" xlink:href="#LiberationMono-50"/>
      </g>
     </g>
    </g>
    <g id="xtick_3">
     <g id="line2d_5">
      <path clip-path="url(#p74352da0a6)" d="M 254.618182 504 
L 254.618182 69.12 
" style="fill:none;stroke:#ffffff;stroke-dasharray:0.8,1.32;stroke-dashoffset:0;stroke-width:0.8;"/>
     </g>
     <g id="line2d_6">
      <g>
       <use style="fill:#ffffff;stroke:#ffffff;stroke-width:0.8;" x="254.618182" xlink:href="#me92d7855a9" y="504"/>
      </g>
     </g>
     <g id="text_3">
      <!-- 0.4 -->
      <g style="fill:#ffffff;" transform="translate(243.815369 519.69625)scale(0.12 -0.12)">
       <defs>
        <path d="M 45.75 15.578125 
L 45.75 0 
L 36.96875 0 
L 36.96875 15.578125 
L 5.03125 15.578125 
L 5.03125 22.40625 
L 36.03125 65.875 
L 45.75 65.875 
L 45.75 22.515625 
L 54.9375 22.515625 
L 54.9375 15.578125 
z
M 36.96875 56.34375 
L 12.546875 22.515625 
L 36.96875 22.515625 
z
" id="LiberationMono-52"/>
       </defs>
       <use xlink:href="#LiberationMono-48"/>
       <use x="60.009766" xlink:href="#LiberationMono-46"/>
       <use x="120.019531" xlink:href="#LiberationMono-52"/>
      </g>
     </g>
    </g>
    <g id="xtick_4">
     <g id="line2d_7">
      <path clip-path="url(#p74352da0a6)" d="M 335.781818 504 
L 335.781818 69.12 
" style="fill:none;stroke:#ffffff;stroke-dasharray:0.8,1.32;stroke-dashoffset:0;stroke-width:0.8;"/>
     </g>
     <g id="line2d_8">
      <g>
       <use style="fill:#ffffff;stroke:#ffffff;stroke-width:0.8;" x="335.781818" xlink:href="#me92d7855a9" y="504"/>
      </g>
     </g>
     <g id="text_4">
      <!-- 0.6 -->
      <g style="fill:#ffffff;" transform="translate(324.979006 519.69625)scale(0.12 -0.12)">
       <defs>
        <path d="M 53.515625 21.78125 
Q 53.515625 11.421875 47.578125 5.21875 
Q 41.65625 -0.984375 31.296875 -0.984375 
Q 19.78125 -0.984375 13.578125 7.4375 
Q 7.375 15.875 7.375 31.34375 
Q 7.375 48.34375 13.8125 57.609375 
Q 20.265625 66.890625 31.984375 66.890625 
Q 47.5625 66.890625 51.609375 52.875 
L 43.21875 51.375 
Q 40.625 59.765625 31.890625 59.765625 
Q 24.421875 59.765625 20.265625 52.96875 
Q 16.109375 46.1875 16.109375 33.9375 
Q 18.5 38.375 22.84375 40.6875 
Q 27.203125 43.015625 32.8125 43.015625 
Q 42.1875 43.015625 47.84375 37.234375 
Q 53.515625 31.453125 53.515625 21.78125 
z
M 44.578125 21.390625 
Q 44.578125 28.421875 40.84375 32.328125 
Q 37.109375 36.234375 30.71875 36.234375 
Q 27.09375 36.234375 23.875 34.59375 
Q 20.65625 32.953125 18.828125 30.046875 
Q 17 27.15625 17 23.484375 
Q 17 16.0625 20.921875 11.078125 
Q 24.859375 6.109375 31 6.109375 
Q 37.203125 6.109375 40.890625 10.203125 
Q 44.578125 14.3125 44.578125 21.390625 
z
" id="LiberationMono-54"/>
       </defs>
       <use xlink:href="#LiberationMono-48"/>
       <use x="60.009766" xlink:href="#LiberationMono-46"/>
       <use x="120.019531" xlink:href="#LiberationMono-54"/>
      </g>
     </g>
    </g>
    <g id="xtick_5">
     <g id="line2d_9">
      <path clip-path="url(#p74352da0a6)" d="M 416.945455 504 
L 416.945455 69.12 
" style="fill:none;stroke:#ffffff;stroke-dasharray:0.8,1.32;stroke-dashoffset:0;stroke-width:0.8;"/>
     </g>
     <g id="line2d_10">
      <g>
       <use style="fill:#ffffff;stroke:#ffffff;stroke-width:0.8;" x="416.945455" xlink:href="#me92d7855a9" y="504"/>
      </g>
     </g>
     <g id="text_5">
      <!-- 0.8 -->
      <g style="fill:#ffffff;" transform="translate(406.142642 519.69625)scale(0.12 -0.12)">
       <defs>
        <path d="M 53.421875 18.453125 
Q 53.421875 9.46875 47.34375 4.234375 
Q 41.265625 -0.984375 29.984375 -0.984375 
Q 18.953125 -0.984375 12.71875 4.140625 
Q 6.5 9.28125 6.5 18.359375 
Q 6.5 24.65625 10.34375 29.078125 
Q 14.203125 33.5 20.21875 34.515625 
L 20.21875 34.71875 
Q 14.75 36.03125 11.421875 40.28125 
Q 8.109375 44.53125 8.109375 50 
Q 8.109375 54.78125 10.8125 58.6875 
Q 13.53125 62.59375 18.453125 64.734375 
Q 23.390625 66.890625 29.78125 66.890625 
Q 36.46875 66.890625 41.453125 64.71875 
Q 46.4375 62.546875 49.0625 58.6875 
Q 51.703125 54.828125 51.703125 49.90625 
Q 51.703125 44.390625 48.328125 40.140625 
Q 44.96875 35.890625 39.5 34.8125 
L 39.5 34.625 
Q 45.84375 33.59375 49.625 29.265625 
Q 53.421875 24.953125 53.421875 18.453125 
z
M 42.578125 49.421875 
Q 42.578125 54.828125 39.28125 57.59375 
Q 35.984375 60.359375 29.78125 60.359375 
Q 23.78125 60.359375 20.4375 57.5625 
Q 17.09375 54.78125 17.09375 49.421875 
Q 17.09375 44 20.453125 41.015625 
Q 23.828125 38.03125 29.890625 38.03125 
Q 42.578125 38.03125 42.578125 49.421875 
z
M 44.28125 19.28125 
Q 44.28125 25.140625 40.46875 28.296875 
Q 36.671875 31.453125 29.78125 31.453125 
Q 23.140625 31.453125 19.359375 28.046875 
Q 15.578125 24.65625 15.578125 19.09375 
Q 15.578125 12.5 19.265625 9.046875 
Q 22.953125 5.609375 30.078125 5.609375 
Q 37.25 5.609375 40.765625 8.984375 
Q 44.28125 12.359375 44.28125 19.28125 
z
" id="LiberationMono-56"/>
       </defs>
       <use xlink:href="#LiberationMono-48"/>
       <use x="60.009766" xlink:href="#LiberationMono-46"/>
       <use x="120.019531" xlink:href="#LiberationMono-56"/>
      </g>
     </g>
    </g>
    <g id="xtick_6">
     <g id="line2d_11">
      <path clip-path="url(#p74352da0a6)" d="M 498.109091 504 
L 498.109091 69.12 
" style="fill:none;stroke:#ffffff;stroke-dasharray:0.8,1.32;stroke-dashoffset:0;stroke-width:0.8;"/>
     </g>
     <g id="line2d_12">
      <g>
       <use style="fill:#ffffff;stroke:#ffffff;stroke-width:0.8;" x="498.109091" xlink:href="#me92d7855a9" y="504"/>
      </g>
     </g>
     <g id="text_6">
      <!-- 1.0 -->
      <g style="fill:#ffffff;" transform="translate(487.306278 519.69625)scale(0.12 -0.12)">
       <defs>
        <path d="M 7.671875 0 
L 7.671875 7.078125 
L 29.109375 7.078125 
L 29.109375 56.9375 
Q 27.296875 53.125 20.53125 50.296875 
Q 13.765625 47.46875 7.234375 47.46875 
L 7.234375 54.6875 
Q 14.453125 54.6875 20.875 57.859375 
Q 27.296875 61.03125 29.828125 65.875 
L 37.9375 65.875 
L 37.9375 7.078125 
L 55.171875 7.078125 
L 55.171875 0 
z
" id="LiberationMono-49"/>
       </defs>
       <use xlink:href="#LiberationMono-49"/>
       <use x="60.009766" xlink:href="#LiberationMono-46"/>
       <use x="120.019531" xlink:href="#LiberationMono-48"/>
      </g>
     </g>
    </g>
    <g id="text_7">
     <!-- Квантили -->
     <g style="fill:#ffffff;" transform="translate(266.3925 534.8825)scale(0.12 -0.12)">
      <defs>
       <path d="M 8.203125 65.875 
L 17.53125 65.875 
L 17.53125 37.109375 
Q 22.078125 37.109375 25.921875 39.578125 
Q 29.78125 42.046875 33.34375 47.359375 
L 45.609375 65.875 
L 55.46875 65.875 
L 41.015625 44.875 
Q 39.015625 41.9375 37.25 39.90625 
Q 35.5 37.890625 32.8125 35.890625 
L 57.671875 0 
L 46.828125 0 
L 25.984375 31.59375 
Q 24.21875 30.859375 21.71875 30.296875 
Q 19.234375 29.734375 17.53125 29.734375 
L 17.53125 0 
L 8.203125 0 
z
" id="LiberationMono-1050"/>
       <path d="M 31.59375 52.828125 
Q 41.359375 52.828125 46.234375 49.40625 
Q 51.125 46 51.125 39.59375 
Q 51.125 35.015625 48.28125 31.984375 
Q 45.453125 28.953125 40.234375 27.984375 
L 40.234375 27.640625 
Q 46.53125 26.8125 49.671875 23.609375 
Q 52.828125 20.40625 52.828125 15.234375 
Q 52.828125 8.0625 47.484375 4.03125 
Q 42.140625 0 32.71875 0 
L 9.03125 0 
L 9.03125 52.828125 
z
M 17.828125 6.5 
L 31.296875 6.5 
Q 38.03125 6.5 40.765625 8.5625 
Q 43.5 10.640625 43.5 15.1875 
Q 43.5 20.125 40.59375 22.140625 
Q 37.703125 24.171875 30.71875 24.171875 
L 17.828125 24.171875 
z
M 17.828125 46.140625 
L 17.828125 30.515625 
L 30.328125 30.515625 
Q 36.578125 30.515625 39.234375 32.265625 
Q 41.890625 34.03125 41.890625 38.421875 
Q 41.890625 42.4375 39.40625 44.28125 
Q 36.921875 46.140625 31 46.140625 
z
" id="LiberationMono-1074"/>
       <path d="M 53.765625 5.421875 
Q 55.03125 5.421875 56.640625 5.765625 
L 56.640625 0.296875 
Q 53.328125 -0.484375 49.859375 -0.484375 
Q 44.96875 -0.484375 42.75 2.078125 
Q 40.53125 4.640625 40.234375 10.109375 
L 39.9375 10.109375 
Q 36.765625 4.203125 32.4375 1.609375 
Q 28.125 -0.984375 21.78125 -0.984375 
Q 14.0625 -0.984375 10.15625 3.21875 
Q 6.25 7.421875 6.25 14.75 
Q 6.25 31.78125 28.421875 32.03125 
L 39.9375 32.234375 
L 39.9375 35.109375 
Q 39.9375 41.5 37.34375 44.3125 
Q 34.765625 47.125 29.109375 47.125 
Q 23.34375 47.125 20.796875 45.0625 
Q 18.265625 43.015625 17.78125 38.71875 
L 8.59375 39.546875 
Q 10.84375 53.8125 29.25 53.8125 
Q 39.015625 53.8125 43.921875 49.234375 
Q 48.828125 44.671875 48.828125 36.03125 
L 48.828125 13.28125 
Q 48.828125 9.375 49.84375 7.390625 
Q 50.875 5.421875 53.765625 5.421875 
z
M 24.03125 5.71875 
Q 28.71875 5.71875 32.328125 7.953125 
Q 35.9375 10.203125 37.9375 13.953125 
Q 39.9375 17.71875 39.9375 21.734375 
L 39.9375 26.078125 
L 30.671875 25.875 
Q 24.90625 25.78125 21.875 24.609375 
Q 18.84375 23.4375 17.15625 21.015625 
Q 15.484375 18.609375 15.484375 14.59375 
Q 15.484375 10.59375 17.65625 8.15625 
Q 19.828125 5.71875 24.03125 5.71875 
z
" id="LiberationMono-1072"/>
       <path d="M 17.625 52.828125 
L 17.625 30.46875 
L 42.390625 30.46875 
L 42.390625 52.828125 
L 51.171875 52.828125 
L 51.171875 0 
L 42.390625 0 
L 42.390625 24.078125 
L 17.625 24.078125 
L 17.625 0 
L 8.84375 0 
L 8.84375 52.828125 
z
" id="LiberationMono-1085"/>
       <path d="M 6.34375 52.828125 
L 53.609375 52.828125 
L 53.609375 45.90625 
L 34.375 45.90625 
L 34.375 0 
L 25.59375 0 
L 25.59375 45.90625 
L 6.34375 45.90625 
z
" id="LiberationMono-1090"/>
       <path d="M 17.53125 52.828125 
L 17.53125 23.921875 
L 17.046875 10.40625 
L 41.40625 52.828125 
L 51.03125 52.828125 
L 51.03125 0 
L 42.625 0 
L 42.625 32.234375 
Q 42.625 35.40625 42.96875 40.28125 
L 43.109375 42.625 
L 18.40625 0 
L 9.03125 0 
L 9.03125 52.828125 
z
" id="LiberationMono-1080"/>
       <path d="M 42.328125 0 
L 42.328125 45.90625 
L 23.734375 45.90625 
L 21.484375 29.984375 
Q 19.734375 17.4375 17.796875 10.90625 
Q 15.875 4.390625 12.96875 1.703125 
Q 10.0625 -0.984375 4.890625 -0.984375 
Q 2.4375 -0.984375 0.296875 -0.34375 
L 0.296875 5.953125 
Q 1.515625 5.515625 3.609375 5.515625 
Q 6.453125 5.515625 8.234375 9.125 
Q 10.015625 12.75 11.625 20.875 
Q 13.234375 29 16.5 52.828125 
L 51.171875 52.828125 
L 51.171875 0 
z
" id="LiberationMono-1083"/>
      </defs>
      <use xlink:href="#LiberationMono-1050"/>
      <use x="60.009766" xlink:href="#LiberationMono-1074"/>
      <use x="120.019531" xlink:href="#LiberationMono-1072"/>
      <use x="180.029297" xlink:href="#LiberationMono-1085"/>
      <use x="240.039062" xlink:href="#LiberationMono-1090"/>
      <use x="300.048828" xlink:href="#LiberationMono-1080"/>
      <use x="360.058594" xlink:href="#LiberationMono-1083"/>
      <use x="420.068359" xlink:href="#LiberationMono-1080"/>
     </g>
    </g>
   </g>
   <g id="matplotlib.axis_2">
    <g id="ytick_1">
     <g id="line2d_13">
      <path clip-path="url(#p74352da0a6)" d="M 72 473.180557 
L 518.4 473.180557 
" style="fill:none;stroke:#ffffff;stroke-dasharray:0.8,1.32;stroke-dashoffset:0;stroke-width:0.8;"/>
     </g>
     <g id="line2d_14">
      <defs>
       <path d="M 0 0 
L -3.5 0 
" id="m54ac529d4a" style="stroke:#ffffff;stroke-width:0.8;"/>
      </defs>
      <g>
       <use style="fill:#ffffff;stroke:#ffffff;stroke-width:0.8;" x="72" xlink:href="#m54ac529d4a" y="473.180557"/>
      </g>
     </g>
     <g id="text_8">
      <!-- 2 -->
      <g style="fill:#ffffff;" transform="translate(57.798125 477.528682)scale(0.12 -0.12)">
       <use xlink:href="#LiberationMono-50"/>
      </g>
     </g>
    </g>
    <g id="ytick_2">
     <g id="line2d_15">
      <path clip-path="url(#p74352da0a6)" d="M 72 387.411015 
L 518.4 387.411015 
" style="fill:none;stroke:#ffffff;stroke-dasharray:0.8,1.32;stroke-dashoffset:0;stroke-width:0.8;"/>
     </g>
     <g id="line2d_16">
      <g>
       <use style="fill:#ffffff;stroke:#ffffff;stroke-width:0.8;" x="72" xlink:href="#m54ac529d4a" y="387.411015"/>
      </g>
     </g>
     <g id="text_9">
      <!-- 3 -->
      <g style="fill:#ffffff;" transform="translate(57.798125 391.75914)scale(0.12 -0.12)">
       <defs>
        <path d="M 53.65625 18.0625 
Q 53.65625 8.984375 47.5 4 
Q 41.359375 -0.984375 30.328125 -0.984375 
Q 19.875 -0.984375 13.625 3.75 
Q 7.375 8.5 6.25 17.671875 
L 15.328125 18.5 
Q 17.09375 6.296875 30.328125 6.296875 
Q 36.96875 6.296875 40.75 9.375 
Q 44.53125 12.453125 44.53125 18.359375 
Q 44.53125 22.015625 42.3125 24.53125 
Q 40.09375 27.046875 36.28125 28.390625 
Q 32.46875 29.734375 27.734375 29.734375 
L 22.75 29.734375 
L 22.75 37.359375 
L 27.546875 37.359375 
Q 31.734375 37.359375 35.21875 38.75 
Q 38.71875 40.140625 40.71875 42.671875 
Q 42.71875 45.21875 42.71875 48.6875 
Q 42.71875 53.859375 39.46875 56.765625 
Q 36.234375 59.671875 29.828125 59.671875 
Q 24.03125 59.671875 20.4375 56.6875 
Q 16.84375 53.71875 16.265625 48.296875 
L 7.421875 48.96875 
Q 8.40625 57.421875 14.421875 62.15625 
Q 20.453125 66.890625 29.9375 66.890625 
Q 40.28125 66.890625 46.015625 62.328125 
Q 51.765625 57.765625 51.765625 49.609375 
Q 51.765625 43.796875 47.90625 39.5 
Q 44.046875 35.203125 37.359375 33.84375 
L 37.359375 33.640625 
Q 44.734375 32.8125 49.1875 28.46875 
Q 53.65625 24.125 53.65625 18.0625 
z
" id="LiberationMono-51"/>
       </defs>
       <use xlink:href="#LiberationMono-51"/>
      </g>
     </g>
    </g>
    <g id="ytick_3">
     <g id="line2d_17">
      <path clip-path="url(#p74352da0a6)" d="M 72 301.641473 
L 518.4 301.641473 
" style="fill:none;stroke:#ffffff;stroke-dasharray:0.8,1.32;stroke-dashoffset:0;stroke-width:0.8;"/>
     </g>
     <g id="line2d_18">
      <g>
       <use style="fill:#ffffff;stroke:#ffffff;stroke-width:0.8;" x="72" xlink:href="#m54ac529d4a" y="301.641473"/>
      </g>
     </g>
     <g id="text_10">
      <!-- 4 -->
      <g style="fill:#ffffff;" transform="translate(57.798125 305.989598)scale(0.12 -0.12)">
       <use xlink:href="#LiberationMono-52"/>
      </g>
     </g>
    </g>
    <g id="ytick_4">
     <g id="line2d_19">
      <path clip-path="url(#p74352da0a6)" d="M 72 215.871932 
L 518.4 215.871932 
" style="fill:none;stroke:#ffffff;stroke-dasharray:0.8,1.32;stroke-dashoffset:0;stroke-width:0.8;"/>
     </g>
     <g id="line2d_20">
      <g>
       <use style="fill:#ffffff;stroke:#ffffff;stroke-width:0.8;" x="72" xlink:href="#m54ac529d4a" y="215.871932"/>
      </g>
     </g>
     <g id="text_11">
      <!-- 5 -->
      <g style="fill:#ffffff;" transform="translate(57.798125 220.220057)scale(0.12 -0.12)">
       <defs>
        <path d="M 53.65625 21.6875 
Q 53.65625 14.890625 50.78125 9.765625 
Q 47.90625 4.640625 42.359375 1.828125 
Q 36.8125 -0.984375 29.25 -0.984375 
Q 19.625 -0.984375 13.71875 3.21875 
Q 7.8125 7.421875 6.25 15.375 
L 15.140625 16.40625 
Q 17.921875 6.203125 29.4375 6.203125 
Q 36.328125 6.203125 40.421875 10.296875 
Q 44.53125 14.40625 44.53125 21.484375 
Q 44.53125 27.546875 40.46875 31.390625 
Q 36.421875 35.25 29.640625 35.25 
Q 26.078125 35.25 23 34.125 
Q 19.921875 33.015625 16.84375 30.328125 
L 8.25 30.328125 
L 10.546875 65.875 
L 49.65625 65.875 
L 49.65625 58.796875 
L 18.65625 58.796875 
L 17.234375 38.03125 
Q 22.953125 42.4375 31.453125 42.4375 
Q 41.40625 42.4375 47.53125 36.6875 
Q 53.65625 30.953125 53.65625 21.6875 
z
" id="LiberationMono-53"/>
       </defs>
       <use xlink:href="#LiberationMono-53"/>
      </g>
     </g>
    </g>
    <g id="ytick_5">
     <g id="line2d_21">
      <path clip-path="url(#p74352da0a6)" d="M 72 130.10239 
L 518.4 130.10239 
" style="fill:none;stroke:#ffffff;stroke-dasharray:0.8,1.32;stroke-dashoffset:0;stroke-width:0.8;"/>
     </g>
     <g id="line2d_22">
      <g>
       <use style="fill:#ffffff;stroke:#ffffff;stroke-width:0.8;" x="72" xlink:href="#m54ac529d4a" y="130.10239"/>
      </g>
     </g>
     <g id="text_12">
      <!-- 6 -->
      <g style="fill:#ffffff;" transform="translate(57.798125 134.450515)scale(0.12 -0.12)">
       <use xlink:href="#LiberationMono-54"/>
      </g>
     </g>
    </g>
    <g id="text_13">
     <!-- PPF -->
     <g style="fill:#ffffff;" transform="translate(51.308125 297.362813)rotate(-90)scale(0.12 -0.12)">
      <defs>
       <path d="M 54.640625 46.140625 
Q 54.640625 40.046875 51.734375 35.25 
Q 48.828125 30.46875 43.421875 27.78125 
Q 38.03125 25.09375 30.953125 25.09375 
L 17.234375 25.09375 
L 17.234375 0 
L 7.90625 0 
L 7.90625 65.875 
L 30.375 65.875 
Q 42 65.875 48.3125 60.671875 
Q 54.640625 55.46875 54.640625 46.140625 
z
M 45.265625 46 
Q 45.265625 58.40625 29.25 58.40625 
L 17.234375 58.40625 
L 17.234375 32.46875 
L 29.640625 32.46875 
Q 36.921875 32.46875 41.09375 36.03125 
Q 45.265625 39.59375 45.265625 46 
z
" id="LiberationMono-80"/>
       <path d="M 18.796875 58.25 
L 18.796875 34.125 
L 51.8125 34.125 
L 51.8125 26.421875 
L 18.796875 26.421875 
L 18.796875 0 
L 9.46875 0 
L 9.46875 65.875 
L 52.984375 65.875 
L 52.984375 58.25 
z
" id="LiberationMono-70"/>
      </defs>
      <use xlink:href="#LiberationMono-80"/>
      <use x="60.009766" xlink:href="#LiberationMono-80"/>
      <use x="120.019531" xlink:href="#LiberationMono-70"/>
     </g>
    </g>
    <g id="text_14">
     <!-- 1e−7 -->
     <g style="fill:#ffffff;" transform="translate(72 66.12)scale(0.12 -0.12)">
      <defs>
       <path d="M 15.71875 24.5625 
Q 15.71875 15.671875 19.640625 10.640625 
Q 23.578125 5.609375 30.421875 5.609375 
Q 35.453125 5.609375 39.234375 7.78125 
Q 43.015625 9.96875 44.28125 13.71875 
L 52 11.53125 
Q 49.859375 5.46875 44.109375 2.234375 
Q 38.375 -0.984375 30.421875 -0.984375 
Q 18.890625 -0.984375 12.6875 6.1875 
Q 6.5 13.375 6.5 26.765625 
Q 6.5 39.796875 12.578125 46.796875 
Q 18.65625 53.8125 30.125 53.8125 
Q 41.609375 53.8125 47.515625 46.828125 
Q 53.421875 39.84375 53.421875 25.734375 
L 53.421875 24.5625 
z
M 30.21875 47.3125 
Q 23.6875 47.3125 19.875 43.03125 
Q 16.0625 38.765625 15.828125 31.296875 
L 44.34375 31.296875 
Q 42.96875 47.3125 30.21875 47.3125 
z
" id="LiberationMono-101"/>
       <path d="M 5.71875 29.6875 
L 5.71875 36.8125 
L 54.296875 36.8125 
L 54.296875 29.6875 
z
" id="LiberationMono-8722"/>
       <path d="M 52.203125 59.078125 
Q 29.109375 25.875 29.109375 0 
L 19.921875 0 
Q 19.921875 12.84375 25.90625 27.703125 
Q 31.890625 42.578125 43.703125 58.796875 
L 7.71875 58.796875 
L 7.71875 65.875 
L 52.203125 65.875 
z
" id="LiberationMono-55"/>
      </defs>
      <use xlink:href="#LiberationMono-49"/>
      <use x="60.009766" xlink:href="#LiberationMono-101"/>
      <use x="120.019531" xlink:href="#LiberationMono-8722"/>
      <use x="180.029297" xlink:href="#LiberationMono-55"/>
     </g>
    </g>
   </g>
   <g id="line2d_23">
    <defs>
     <path d="M 0 3 
C 0.795609 3 1.55874 2.683901 2.12132 2.12132 
C 2.683901 1.55874 3 0.795609 3 0 
C 3 -0.795609 2.683901 -1.55874 2.12132 -2.12132 
C 1.55874 -2.683901 0.795609 -3 0 -3 
C -0.795609 -3 -1.55874 -2.683901 -2.12132 -2.12132 
C -2.683901 -1.55874 -3 -0.795609 -3 0 
C -3 0.795609 -2.683901 1.55874 -2.12132 2.12132 
C -1.55874 2.683901 -0.795609 3 0 3 
z
" id="ma0e5ec8eaa" style="stroke:#8dd3c7;"/>
    </defs>
    <g clip-path="url(#p74352da0a6)">
     <use style="fill:#8dd3c7;stroke:#8dd3c7;" x="112.581818" xlink:href="#ma0e5ec8eaa" y="367.68402"/>
     <use style="fill:#8dd3c7;stroke:#8dd3c7;" x="295.2" xlink:href="#ma0e5ec8eaa" y="298.210692"/>
     <use style="fill:#8dd3c7;stroke:#8dd3c7;" x="477.818182" xlink:href="#ma0e5ec8eaa" y="218.445018"/>
    </g>
   </g>
   <g id="line2d_24">
    <path clip-path="url(#p74352da0a6)" d="M 92.290909 451.291028 
L 100.572913 427.034801 
L 108.854917 413.371622 
L 117.13692 403.224895 
L 125.418924 394.903711 
L 133.700928 387.713067 
L 141.982931 381.294026 
L 150.264935 375.434942 
L 158.546939 369.999523 
L 166.828942 364.894239 
L 175.110946 360.051715 
L 183.39295 355.421491 
L 191.674954 350.964544 
L 199.956957 346.649854 
L 208.238961 342.452151 
L 216.520965 338.350392 
L 224.802968 334.326689 
L 233.084972 330.365536 
L 241.366976 326.453234 
L 249.64898 322.577452 
L 257.930983 318.726887 
L 266.212987 314.890979 
L 274.494991 311.059687 
L 282.776994 307.223281 
L 291.058998 303.372166 
L 299.341002 299.496705 
L 307.623006 295.587056 
L 315.905009 291.63299 
L 324.187013 287.623709 
L 332.469017 283.547629 
L 340.75102 279.392133 
L 349.033024 275.143283 
L 357.315028 270.785452 
L 365.597032 266.300873 
L 373.879035 261.669053 
L 382.161039 256.866012 
L 390.443043 251.863254 
L 398.725046 246.626361 
L 407.00705 241.113024 
L 415.289054 235.270192 
L 423.571058 229.029826 
L 431.853061 222.302347 
L 440.135065 214.96604 
L 448.417069 206.849012 
L 456.699072 197.69628 
L 464.981076 187.104215 
L 473.26308 174.373222 
L 481.545083 158.112529 
L 489.827087 134.816846 
L 498.109091 88.887273 
" style="fill:none;stroke:#feffb3;stroke-dasharray:5.55,2.4;stroke-dashoffset:0;stroke-width:1.5;"/>
   </g>
   <g id="line2d_25">
    <path clip-path="url(#p74352da0a6)" d="M 92.290909 451.291008 
L 100.572913 427.034782 
L 108.854917 413.371603 
L 117.13692 403.224877 
L 125.418924 394.903694 
L 133.700928 387.71305 
L 141.982931 381.29401 
L 150.264935 375.434926 
L 158.546939 369.999508 
L 166.828942 364.894225 
L 175.110946 360.051701 
L 183.39295 355.421477 
L 191.674954 350.964532 
L 199.956957 346.649842 
L 208.238961 342.45214 
L 216.520965 338.350381 
L 224.802968 334.326679 
L 233.084972 330.365526 
L 241.366976 326.453225 
L 249.64898 322.577444 
L 257.930983 318.726879 
L 266.212987 314.890972 
L 274.494991 311.05968 
L 282.776994 307.223275 
L 291.058998 303.37216 
L 299.341002 299.496701 
L 307.623006 295.587052 
L 315.905009 291.632988 
L 324.187013 287.623707 
L 332.469017 283.547627 
L 340.75102 279.392133 
L 349.033024 275.143284 
L 357.315028 270.785454 
L 365.597032 266.300875 
L 373.879035 261.669057 
L 382.161039 256.866017 
L 390.443043 251.86326 
L 398.725046 246.626368 
L 407.00705 241.113033 
L 415.289054 235.270202 
L 423.571058 229.029838 
L 431.853061 222.302361 
L 440.135065 214.966056 
L 448.417069 206.849031 
L 456.699072 197.696301 
L 464.981076 187.104239 
L 473.26308 174.37325 
L 481.545083 158.112563 
L 489.827087 134.816888 
L 498.109091 88.887334 
" style="fill:none;stroke:#bfbbd9;stroke-dasharray:5.55,2.4;stroke-dashoffset:0;stroke-width:1.5;"/>
   </g>
   <g id="line2d_26">
    <path clip-path="url(#p74352da0a6)" d="M 92.290909 385.051861 
L 100.572913 369.910698 
L 108.854917 361.538461 
L 117.13692 355.382925 
L 125.418924 350.370311 
L 133.700928 346.062404 
L 141.982931 342.234047 
L 150.264935 338.753029 
L 158.546939 335.53451 
L 166.828942 332.520458 
L 175.110946 329.669191 
L 183.39295 326.949584 
L 191.674954 324.337638 
L 199.956957 321.814329 
L 208.238961 319.364212 
L 216.520965 316.974467 
L 224.802968 314.634236 
L 233.084972 312.334141 
L 241.366976 310.065935 
L 249.64898 307.822226 
L 257.930983 305.596269 
L 266.212987 303.381797 
L 274.494991 301.172878 
L 282.776994 298.963797 
L 291.058998 296.748945 
L 299.341002 294.522716 
L 307.623006 292.279415 
L 315.905009 290.013147 
L 324.187013 287.717715 
L 332.469017 285.386496 
L 340.75102 283.012302 
L 349.033024 280.58721 
L 357.315028 278.102362 
L 365.597032 275.547707 
L 373.879035 272.911671 
L 382.161039 270.180731 
L 390.443043 267.338832 
L 398.725046 264.366605 
L 407.00705 261.240251 
L 415.289054 257.929946 
L 423.571058 254.397455 
L 431.853061 250.592448 
L 440.135065 246.446553 
L 448.417069 241.863207 
L 456.699072 236.699167 
L 464.981076 230.727642 
L 473.26308 223.555438 
L 481.545083 214.400551 
L 489.827087 201.290594 
L 498.109091 175.434358 
" style="fill:none;stroke:#fa8174;stroke-dasharray:5.55,2.4;stroke-dashoffset:0;stroke-width:1.5;"/>
   </g>
   <g id="line2d_27">
    <path clip-path="url(#p74352da0a6)" d="M 92.290909 484.232727 
L 100.572913 448.112007 
L 108.854917 428.984545 
L 117.13692 415.278779 
L 125.418924 404.331521 
L 133.700928 395.071238 
L 141.982931 386.953214 
L 150.264935 379.660414 
L 158.546939 372.991003 
L 166.828942 366.807941 
L 175.110946 361.013517 
L 183.39295 355.535316 
L 191.674954 350.317938 
L 199.956957 345.317854 
L 208.238961 340.500053 
L 216.520965 335.835788 
L 224.802968 331.301006 
L 233.084972 326.875221 
L 241.366976 322.540685 
L 249.64898 318.281771 
L 257.930983 314.084491 
L 266.212987 309.936115 
L 274.494991 305.824868 
L 282.776994 301.739672 
L 291.058998 297.669921 
L 299.341002 293.605289 
L 307.623006 289.535539 
L 315.905009 285.450343 
L 324.187013 281.339096 
L 332.469017 277.19072 
L 340.75102 272.993439 
L 349.033024 268.734526 
L 357.315028 264.39999 
L 365.597032 259.974204 
L 373.879035 255.439423 
L 382.161039 250.775158 
L 390.443043 245.957357 
L 398.725046 240.957272 
L 407.00705 235.739895 
L 415.289054 230.261694 
L 423.571058 224.46727 
L 431.853061 218.284208 
L 440.135065 211.614797 
L 448.417069 204.321997 
L 456.699072 196.203972 
L 464.981076 186.94369 
L 473.26308 175.996432 
L 481.545083 162.290665 
L 489.827087 143.163204 
L 498.109091 107.042483 
" style="fill:none;stroke:#81b1d2;stroke-dasharray:5.55,2.4;stroke-dashoffset:0;stroke-width:1.5;"/>
   </g>
   <g id="patch_3">
    <path d="M 72 504 
L 72 69.12 
" style="fill:none;stroke:#ffffff;stroke-linecap:square;stroke-linejoin:miter;stroke-width:0.8;"/>
   </g>
   <g id="patch_4">
    <path d="M 518.4 504 
L 518.4 69.12 
" style="fill:none;stroke:#ffffff;stroke-linecap:square;stroke-linejoin:miter;stroke-width:0.8;"/>
   </g>
   <g id="patch_5">
    <path d="M 72 504 
L 518.4 504 
" style="fill:none;stroke:#ffffff;stroke-linecap:square;stroke-linejoin:miter;stroke-width:0.8;"/>
   </g>
   <g id="patch_6">
    <path d="M 72 69.12 
L 518.4 69.12 
" style="fill:none;stroke:#ffffff;stroke-linecap:square;stroke-linejoin:miter;stroke-width:0.8;"/>
   </g>
   <g id="text_15">
    <!-- Подгонка распределений под квантили  -->
    <g style="fill:#ffffff;" transform="translate(139.6395 47.6094)scale(0.144 -0.144)">
     <defs>
      <path d="M 42.71875 0 
L 42.71875 58.0625 
L 17.234375 58.0625 
L 17.234375 0 
L 7.90625 0 
L 7.90625 65.875 
L 52.046875 65.875 
L 52.046875 0 
z
" id="LiberationMono-1055"/>
      <path d="M 53.5625 26.46875 
Q 53.5625 13.140625 47.4375 6.078125 
Q 41.3125 -0.984375 29.734375 -0.984375 
Q 18.40625 -0.984375 12.375 6.140625 
Q 6.34375 13.28125 6.34375 26.46875 
Q 6.34375 40.09375 12.515625 46.953125 
Q 18.703125 53.8125 30.03125 53.8125 
Q 41.9375 53.8125 47.75 47.015625 
Q 53.5625 40.234375 53.5625 26.46875 
z
M 44.34375 26.46875 
Q 44.34375 36.96875 40.984375 42.140625 
Q 37.640625 47.3125 30.171875 47.3125 
Q 22.609375 47.3125 19.09375 42.03125 
Q 15.578125 36.765625 15.578125 26.46875 
Q 15.578125 16.21875 19.09375 10.859375 
Q 22.609375 5.515625 29.640625 5.515625 
Q 37.40625 5.515625 40.875 10.734375 
Q 44.34375 15.96875 44.34375 26.46875 
z
" id="LiberationMono-1086"/>
      <path d="M 40.578125 45.90625 
L 25.140625 45.90625 
Q 23.390625 32.859375 21.171875 23.3125 
Q 18.953125 13.765625 15.828125 6.9375 
L 40.578125 6.9375 
z
M 55.765625 -19.921875 
L 47.796875 -19.921875 
L 47.796875 0 
L 9.03125 0 
L 9.03125 -19.921875 
L 1.078125 -19.921875 
L 1.078125 6.9375 
L 6.890625 6.9375 
Q 10.6875 13.1875 13.375 24.40625 
Q 16.0625 35.640625 18.171875 52.828125 
L 48.640625 52.828125 
L 48.640625 6.9375 
L 55.765625 6.9375 
z
" id="LiberationMono-1076"/>
      <path d="M 51.265625 52.828125 
L 51.265625 45.90625 
L 21.734375 45.90625 
L 21.734375 0 
L 12.9375 0 
L 12.9375 52.828125 
z
" id="LiberationMono-1075"/>
      <path d="M 10.640625 52.828125 
L 19.4375 52.828125 
L 19.4375 29.6875 
Q 24.953125 29.6875 28.5625 31.984375 
Q 32.171875 34.28125 35.796875 39.703125 
L 44.578125 52.828125 
L 54.046875 52.828125 
L 43.015625 36.96875 
Q 39.203125 31.546875 35.6875 29 
L 54.5 0 
L 44.53125 0 
L 29.046875 24.859375 
Q 27.390625 24.125 24.703125 23.625 
Q 22.015625 23.140625 19.4375 23.140625 
L 19.4375 0 
L 10.640625 0 
z
" id="LiberationMono-1082"/>
      <path id="LiberationMono-32"/>
      <path d="M 53.21875 26.65625 
Q 53.21875 -0.984375 34.078125 -0.984375 
Q 22.078125 -0.984375 17.921875 8.015625 
L 17.671875 8.015625 
Q 17.875 7.625 17.875 -0.09375 
L 17.875 -20.75 
L 9.03125 -20.75 
L 9.03125 41.890625 
Q 9.03125 50.203125 8.734375 52.828125 
L 17.28125 52.828125 
Q 17.328125 52.640625 17.421875 51.390625 
Q 17.53125 50.140625 17.65625 47.71875 
Q 17.78125 45.3125 17.78125 44.140625 
L 17.96875 44.140625 
Q 20.40625 49.265625 24.1875 51.578125 
Q 27.984375 53.90625 34.078125 53.90625 
Q 43.75 53.90625 48.484375 47.234375 
Q 53.21875 40.578125 53.21875 26.65625 
z
M 44.140625 26.65625 
Q 44.140625 37.703125 41.15625 42.40625 
Q 38.1875 47.125 31.78125 47.125 
Q 24.421875 47.125 21.140625 41.765625 
Q 17.875 36.421875 17.875 25.59375 
Q 17.875 15.1875 21.140625 10.34375 
Q 24.421875 5.515625 31.6875 5.515625 
Q 38.1875 5.515625 41.15625 10.4375 
Q 44.140625 15.375 44.140625 26.65625 
z
" id="LiberationMono-1088"/>
      <path d="M 6.34375 26.46875 
Q 6.34375 39.65625 12.640625 46.734375 
Q 18.953125 53.8125 30.859375 53.8125 
Q 39.75 53.8125 45.5 49.53125 
Q 51.265625 45.265625 52.640625 38.03125 
L 43.265625 37.359375 
Q 42.484375 41.796875 39.359375 44.359375 
Q 36.234375 46.921875 30.46875 46.921875 
Q 22.75 46.921875 19.15625 42.140625 
Q 15.578125 37.359375 15.578125 26.65625 
Q 15.578125 15.828125 19.15625 10.8125 
Q 22.75 5.8125 30.421875 5.8125 
Q 35.6875 5.8125 39.15625 8.390625 
Q 42.625 10.984375 43.453125 16.3125 
L 52.734375 15.71875 
Q 52.09375 11.03125 49.1875 7.203125 
Q 46.296875 3.375 41.5 1.1875 
Q 36.71875 -0.984375 30.8125 -0.984375 
Q 18.84375 -0.984375 12.59375 6.046875 
Q 6.34375 13.09375 6.34375 26.46875 
z
" id="LiberationMono-1089"/>
      <path d="M 51.171875 52.828125 
L 51.171875 0 
L 42.390625 0 
L 42.390625 45.90625 
L 17.625 45.90625 
L 17.625 0 
L 8.84375 0 
L 8.84375 52.828125 
z
" id="LiberationMono-1087"/>
      <path d="M 15.71875 24.5625 
Q 15.71875 15.671875 19.640625 10.640625 
Q 23.578125 5.609375 30.421875 5.609375 
Q 35.453125 5.609375 39.234375 7.78125 
Q 43.015625 9.96875 44.28125 13.71875 
L 52 11.53125 
Q 49.859375 5.46875 44.109375 2.234375 
Q 38.375 -0.984375 30.421875 -0.984375 
Q 18.890625 -0.984375 12.6875 6.1875 
Q 6.5 13.375 6.5 26.765625 
Q 6.5 39.796875 12.578125 46.796875 
Q 18.65625 53.8125 30.125 53.8125 
Q 41.609375 53.8125 47.515625 46.828125 
Q 53.421875 39.84375 53.421875 25.734375 
L 53.421875 24.5625 
z
M 30.21875 47.3125 
Q 23.6875 47.3125 19.875 43.03125 
Q 16.0625 38.765625 15.828125 31.296875 
L 44.34375 31.296875 
Q 42.96875 47.3125 30.21875 47.3125 
z
" id="LiberationMono-1077"/>
      <path d="M 17.53125 52.828125 
L 17.53125 23.921875 
L 17.046875 10.40625 
L 41.40625 52.828125 
L 51.03125 52.828125 
L 51.03125 0 
L 42.625 0 
L 42.625 32.234375 
Q 42.625 35.40625 42.96875 40.28125 
L 43.109375 42.625 
L 18.40625 0 
L 9.03125 0 
L 9.03125 52.828125 
z
M 30.03125 58.59375 
Q 12.546875 58.59375 12.109375 71.296875 
L 20.125 71.296875 
Q 20.359375 67.53125 22.609375 65.765625 
Q 24.859375 64.015625 30.03125 64.015625 
Q 35.15625 64.015625 37.421875 65.765625 
Q 39.703125 67.53125 39.9375 71.296875 
L 47.953125 71.296875 
Q 47.515625 58.59375 30.03125 58.59375 
z
" id="LiberationMono-1081"/>
     </defs>
     <use xlink:href="#LiberationMono-1055"/>
     <use x="60.009766" xlink:href="#LiberationMono-1086"/>
     <use x="120.019531" xlink:href="#LiberationMono-1076"/>
     <use x="180.029297" xlink:href="#LiberationMono-1075"/>
     <use x="240.039062" xlink:href="#LiberationMono-1086"/>
     <use x="300.048828" xlink:href="#LiberationMono-1085"/>
     <use x="360.058594" xlink:href="#LiberationMono-1082"/>
     <use x="420.068359" xlink:href="#LiberationMono-1072"/>
     <use x="480.078125" xlink:href="#LiberationMono-32"/>
     <use x="540.087891" xlink:href="#LiberationMono-1088"/>
     <use x="600.097656" xlink:href="#LiberationMono-1072"/>
     <use x="660.107422" xlink:href="#LiberationMono-1089"/>
     <use x="720.117188" xlink:href="#LiberationMono-1087"/>
     <use x="780.126953" xlink:href="#LiberationMono-1088"/>
     <use x="840.136719" xlink:href="#LiberationMono-1077"/>
     <use x="900.146484" xlink:href="#LiberationMono-1076"/>
     <use x="960.15625" xlink:href="#LiberationMono-1077"/>
     <use x="1020.166016" xlink:href="#LiberationMono-1083"/>
     <use x="1080.175781" xlink:href="#LiberationMono-1077"/>
     <use x="1140.185547" xlink:href="#LiberationMono-1085"/>
     <use x="1200.195312" xlink:href="#LiberationMono-1080"/>
     <use x="1260.205078" xlink:href="#LiberationMono-1081"/>
     <use x="1320.214844" xlink:href="#LiberationMono-32"/>
     <use x="1380.224609" xlink:href="#LiberationMono-1087"/>
     <use x="1440.234375" xlink:href="#LiberationMono-1086"/>
     <use x="1500.244141" xlink:href="#LiberationMono-1076"/>
     <use x="1560.253906" xlink:href="#LiberationMono-32"/>
     <use x="1620.263672" xlink:href="#LiberationMono-1082"/>
     <use x="1680.273438" xlink:href="#LiberationMono-1074"/>
     <use x="1740.283203" xlink:href="#LiberationMono-1072"/>
     <use x="1800.292969" xlink:href="#LiberationMono-1085"/>
     <use x="1860.302734" xlink:href="#LiberationMono-1090"/>
     <use x="1920.3125" xlink:href="#LiberationMono-1080"/>
     <use x="1980.322266" xlink:href="#LiberationMono-1083"/>
     <use x="2040.332031" xlink:href="#LiberationMono-1080"/>
     <use x="2100.341797" xlink:href="#LiberationMono-32"/>
    </g>
    <!--  и мат. ожидание для Q FC JNID/IL -->
    <g style="fill:#ffffff;" transform="translate(152.602875 63.12)scale(0.144 -0.144)">
     <defs>
      <path d="M 47.5625 0 
L 47.5625 35.359375 
Q 47.5625 37.9375 47.953125 46.53125 
L 34.03125 0 
L 26.5625 0 
L 12.203125 46.4375 
Q 12.5 42.78125 12.5 35.359375 
L 12.5 0 
L 4.984375 0 
L 4.984375 52.828125 
L 17.1875 52.828125 
L 26.953125 21.53125 
Q 29.546875 13.28125 30.28125 6.59375 
Q 31.34375 14.359375 33.59375 21.53125 
L 43.359375 52.828125 
L 55.03125 52.828125 
L 55.03125 0 
z
" id="LiberationMono-1084"/>
      <path d="M 26.21875 0 
L 26.21875 23.4375 
Q 24.75 23.640625 23.40625 24.1875 
Q 22.078125 24.75 21.4375 25.25 
L 9.078125 0 
L 0.046875 0 
L 16.40625 29.6875 
Q 15.375 30.8125 13.90625 32.78125 
Q 12.453125 34.765625 0.484375 52.828125 
L 9.1875 52.828125 
L 16.40625 41.15625 
Q 19.578125 36.078125 21.765625 33.734375 
Q 23.96875 31.390625 26.21875 30.5625 
L 26.21875 52.828125 
L 33.734375 52.828125 
L 33.734375 30.5625 
Q 36.078125 31.453125 38.25 33.8125 
Q 40.4375 36.1875 43.5625 41.15625 
L 50.78125 52.828125 
L 59.46875 52.828125 
L 48.921875 36.96875 
Q 45.453125 31.78125 43.5 29.6875 
L 59.90625 0 
L 50.875 0 
L 38.53125 25.25 
Q 37.9375 24.8125 36.59375 24.21875 
Q 35.25 23.640625 33.734375 23.4375 
L 33.734375 0 
z
" id="LiberationMono-1078"/>
      <path d="M 28.65625 22.359375 
L 13.28125 0 
L 3.375 0 
L 20.171875 23 
Q 8.015625 25.53125 8.015625 38.234375 
Q 8.015625 45.515625 13.28125 49.171875 
Q 18.5625 52.828125 28.65625 52.828125 
L 49.75 52.828125 
L 49.75 0 
L 40.96875 0 
L 40.96875 22.359375 
z
M 40.96875 46.625 
L 29.546875 46.625 
Q 23.1875 46.625 20.25 44.375 
Q 17.328125 42.140625 17.328125 37.59375 
Q 17.328125 33.015625 19.9375 30.734375 
Q 22.5625 28.46875 28.609375 28.46875 
L 40.96875 28.46875 
z
" id="LiberationMono-1103"/>
      <path d="M 54.984375 33.25 
Q 54.984375 19.09375 50.171875 10.515625 
Q 45.359375 1.953125 36.421875 -0.203125 
Q 38.421875 -6.34375 41.6875 -9.125 
Q 44.96875 -11.921875 49.90625 -11.921875 
Q 52.59375 -11.921875 55.515625 -11.28125 
L 55.515625 -17.828125 
Q 50.984375 -18.890625 46.828125 -18.890625 
Q 39.5 -18.890625 34.734375 -14.765625 
Q 29.984375 -10.640625 26.90625 -0.78125 
Q 16.21875 0.296875 10.59375 8.953125 
Q 4.984375 17.625 4.984375 33.25 
Q 4.984375 49.703125 11.328125 58.296875 
Q 17.671875 66.890625 30.03125 66.890625 
Q 42.09375 66.890625 48.53125 58.421875 
Q 54.984375 49.953125 54.984375 33.25 
z
M 45.171875 33.25 
Q 45.171875 59.28125 30.03125 59.28125 
Q 14.796875 59.28125 14.796875 33.25 
Q 14.796875 20.0625 18.65625 13.328125 
Q 22.515625 6.59375 29.984375 6.59375 
Q 37.9375 6.59375 41.546875 13.421875 
Q 45.171875 20.265625 45.171875 33.25 
z
" id="LiberationMono-81"/>
      <path d="M 15.328125 33.25 
Q 15.328125 19.921875 19.5 13.25 
Q 23.6875 6.59375 32.28125 6.59375 
Q 37.203125 6.59375 41.203125 9.9375 
Q 45.21875 13.28125 48 20.359375 
L 55.765625 17.1875 
Q 48.484375 -0.984375 32.171875 -0.984375 
Q 19.34375 -0.984375 12.421875 7.859375 
Q 5.515625 16.703125 5.515625 33.25 
Q 5.515625 66.890625 31.6875 66.890625 
Q 48.25 66.890625 54.4375 50.53125 
L 46.234375 47.359375 
Q 44.4375 52.875 40.59375 56.078125 
Q 36.765625 59.28125 31.734375 59.28125 
Q 23.390625 59.28125 19.359375 52.984375 
Q 15.328125 46.6875 15.328125 33.25 
z
" id="LiberationMono-67"/>
      <path d="M 48.140625 20.515625 
Q 48.140625 10.296875 43.015625 4.65625 
Q 37.890625 -0.984375 28.609375 -0.984375 
Q 20.265625 -0.984375 15.28125 3.359375 
Q 10.296875 7.71875 8.59375 17.09375 
L 17.71875 18.609375 
Q 18.609375 12.84375 21.453125 9.71875 
Q 24.3125 6.59375 28.65625 6.59375 
Q 38.875 6.59375 38.875 20.3125 
L 38.875 58.25 
L 23.6875 58.25 
L 23.6875 65.875 
L 48.140625 65.875 
z
" id="LiberationMono-74"/>
      <path d="M 40.828125 0 
L 15.4375 55.171875 
Q 16.21875 46.78125 16.21875 42.78125 
L 16.21875 0 
L 7.90625 0 
L 7.90625 65.875 
L 18.75 65.875 
L 44.53125 10.296875 
Q 43.65625 17.328125 43.65625 23.6875 
L 43.65625 65.875 
L 52.046875 65.875 
L 52.046875 0 
z
" id="LiberationMono-78"/>
      <path d="M 9.859375 65.875 
L 50.046875 65.875 
L 50.046875 58.25 
L 34.625 58.25 
L 34.625 7.625 
L 50.046875 7.625 
L 50.046875 0 
L 9.859375 0 
L 9.859375 7.625 
L 25.296875 7.625 
L 25.296875 58.25 
L 9.859375 58.25 
z
" id="LiberationMono-73"/>
      <path d="M 54.9375 33.59375 
Q 54.9375 17.4375 47.4375 8.71875 
Q 39.9375 0 25.984375 0 
L 7.90625 0 
L 7.90625 65.875 
L 23.09375 65.875 
Q 39.15625 65.875 47.046875 57.84375 
Q 54.9375 49.8125 54.9375 33.59375 
z
M 45.5625 33.59375 
Q 45.5625 46.484375 40.1875 52.359375 
Q 34.8125 58.25 23.140625 58.25 
L 17.234375 58.25 
L 17.234375 7.625 
L 25.140625 7.625 
Q 35.5 7.625 40.53125 14.109375 
Q 45.5625 20.609375 45.5625 33.59375 
z
" id="LiberationMono-68"/>
      <path d="M 5.5625 -0.984375 
L 45.65625 72.46875 
L 54.34375 72.46875 
L 14.453125 -0.984375 
z
" id="LiberationMono-47"/>
      <path d="M 11.578125 0 
L 11.578125 65.875 
L 20.90625 65.875 
L 20.90625 7.625 
L 53.71875 7.625 
L 53.71875 0 
z
" id="LiberationMono-76"/>
     </defs>
     <use xlink:href="#LiberationMono-32"/>
     <use x="60.009766" xlink:href="#LiberationMono-1080"/>
     <use x="120.019531" xlink:href="#LiberationMono-32"/>
     <use x="180.029297" xlink:href="#LiberationMono-1084"/>
     <use x="240.039062" xlink:href="#LiberationMono-1072"/>
     <use x="300.048828" xlink:href="#LiberationMono-1090"/>
     <use x="360.058594" xlink:href="#LiberationMono-46"/>
     <use x="420.068359" xlink:href="#LiberationMono-32"/>
     <use x="480.078125" xlink:href="#LiberationMono-1086"/>
     <use x="540.087891" xlink:href="#LiberationMono-1078"/>
     <use x="600.097656" xlink:href="#LiberationMono-1080"/>
     <use x="660.107422" xlink:href="#LiberationMono-1076"/>
     <use x="720.117188" xlink:href="#LiberationMono-1072"/>
     <use x="780.126953" xlink:href="#LiberationMono-1085"/>
     <use x="840.136719" xlink:href="#LiberationMono-1080"/>
     <use x="900.146484" xlink:href="#LiberationMono-1077"/>
     <use x="960.15625" xlink:href="#LiberationMono-32"/>
     <use x="1020.166016" xlink:href="#LiberationMono-1076"/>
     <use x="1080.175781" xlink:href="#LiberationMono-1083"/>
     <use x="1140.185547" xlink:href="#LiberationMono-1103"/>
     <use x="1200.195312" xlink:href="#LiberationMono-32"/>
     <use x="1260.205078" xlink:href="#LiberationMono-81"/>
     <use x="1320.214844" xlink:href="#LiberationMono-32"/>
     <use x="1380.224609" xlink:href="#LiberationMono-70"/>
     <use x="1440.234375" xlink:href="#LiberationMono-67"/>
     <use x="1500.244141" xlink:href="#LiberationMono-32"/>
     <use x="1560.253906" xlink:href="#LiberationMono-74"/>
     <use x="1620.263672" xlink:href="#LiberationMono-78"/>
     <use x="1680.273438" xlink:href="#LiberationMono-73"/>
     <use x="1740.283203" xlink:href="#LiberationMono-68"/>
     <use x="1800.292969" xlink:href="#LiberationMono-47"/>
     <use x="1860.302734" xlink:href="#LiberationMono-73"/>
     <use x="1920.3125" xlink:href="#LiberationMono-76"/>
    </g>
   </g>
   <g id="legend_1">
    <g id="patch_7">
     <path d="M 80.4 177.57675 
L 306.04875 177.57675 
Q 308.44875 177.57675 308.44875 175.17675 
L 308.44875 77.52 
Q 308.44875 75.12 306.04875 75.12 
L 80.4 75.12 
Q 78 75.12 78 77.52 
L 78 175.17675 
Q 78 177.57675 80.4 177.57675 
z
" style="opacity:0.8;stroke:#cccccc;stroke-linejoin:miter;"/>
    </g>
    <g id="line2d_28"/>
    <g id="line2d_29">
     <g>
      <use style="fill:#8dd3c7;stroke:#8dd3c7;" x="94.8" xlink:href="#ma0e5ec8eaa" y="92.124"/>
     </g>
    </g>
    <g id="text_16">
     <!-- Опорные квантили  -->
     <g style="fill:#ffffff;" transform="translate(116.4 88.61625)scale(0.12 -0.12)">
      <defs>
       <path d="M 54.984375 33.25 
Q 54.984375 16.796875 48.515625 7.90625 
Q 42.046875 -0.984375 29.9375 -0.984375 
Q 17.78125 -0.984375 11.375 7.75 
Q 4.984375 16.5 4.984375 33.25 
Q 4.984375 49.703125 11.328125 58.296875 
Q 17.671875 66.890625 30.03125 66.890625 
Q 42.09375 66.890625 48.53125 58.421875 
Q 54.984375 49.953125 54.984375 33.25 
z
M 45.171875 33.25 
Q 45.171875 59.28125 30.03125 59.28125 
Q 14.796875 59.28125 14.796875 33.25 
Q 14.796875 20.0625 18.65625 13.328125 
Q 22.515625 6.59375 29.984375 6.59375 
Q 37.9375 6.59375 41.546875 13.421875 
Q 45.171875 20.265625 45.171875 33.25 
z
" id="LiberationMono-1054"/>
       <path d="M 20.75 30.46875 
Q 30.765625 30.46875 35.890625 26.875 
Q 41.015625 23.296875 41.015625 15.53125 
Q 41.015625 8.015625 35.734375 4 
Q 30.46875 0 20.796875 0 
L 5.171875 0 
L 5.171875 52.828125 
L 13.1875 52.828125 
L 13.1875 30.46875 
z
M 13.1875 6.203125 
L 20.75 6.203125 
Q 26.859375 6.203125 29.65625 8.5 
Q 32.46875 10.796875 32.46875 15.53125 
Q 32.46875 20.125 29.703125 22.234375 
Q 26.953125 24.359375 20.796875 24.359375 
L 13.1875 24.359375 
z
M 46.78125 0 
L 46.78125 52.828125 
L 54.78125 52.828125 
L 54.78125 0 
z
" id="LiberationMono-1099"/>
      </defs>
      <use xlink:href="#LiberationMono-1054"/>
      <use x="60.009766" xlink:href="#LiberationMono-1087"/>
      <use x="120.019531" xlink:href="#LiberationMono-1086"/>
      <use x="180.029297" xlink:href="#LiberationMono-1088"/>
      <use x="240.039062" xlink:href="#LiberationMono-1085"/>
      <use x="300.048828" xlink:href="#LiberationMono-1099"/>
      <use x="360.058594" xlink:href="#LiberationMono-1077"/>
      <use x="420.068359" xlink:href="#LiberationMono-32"/>
      <use x="480.078125" xlink:href="#LiberationMono-1082"/>
      <use x="540.087891" xlink:href="#LiberationMono-1074"/>
      <use x="600.097656" xlink:href="#LiberationMono-1072"/>
      <use x="660.107422" xlink:href="#LiberationMono-1085"/>
      <use x="720.117188" xlink:href="#LiberationMono-1090"/>
      <use x="780.126953" xlink:href="#LiberationMono-1080"/>
      <use x="840.136719" xlink:href="#LiberationMono-1083"/>
      <use x="900.146484" xlink:href="#LiberationMono-1080"/>
      <use x="960.15625" xlink:href="#LiberationMono-32"/>
     </g>
     <!--  5%-50%-95%, mean=4.07e-07 -->
     <g style="fill:#ffffff;" transform="translate(116.4 101.54175)scale(0.12 -0.12)">
      <defs>
       <path d="M 10.796875 0 
L 3.71875 0 
L 49.21875 66.0625 
L 56.390625 66.0625 
z
M 14.203125 66.453125 
Q 28.03125 66.453125 28.03125 50.046875 
Q 28.03125 41.890625 24.46875 37.640625 
Q 20.90625 33.40625 14.015625 33.40625 
Q 7.125 33.40625 3.5625 37.59375 
Q 0 41.796875 0 50.046875 
Q 0 58.203125 3.421875 62.328125 
Q 6.84375 66.453125 14.203125 66.453125 
z
M 20.84375 50.046875 
Q 20.84375 55.859375 19.3125 58.515625 
Q 17.78125 61.1875 14.15625 61.1875 
Q 10.40625 61.1875 8.78125 58.59375 
Q 7.171875 56 7.171875 50.046875 
Q 7.171875 44.390625 8.78125 41.65625 
Q 10.40625 38.921875 14.109375 38.921875 
Q 17.578125 38.921875 19.203125 41.625 
Q 20.84375 44.34375 20.84375 50.046875 
z
M 46.234375 32.46875 
Q 60.0625 32.46875 60.0625 16.0625 
Q 60.0625 7.90625 56.5 3.65625 
Q 52.9375 -0.59375 46.046875 -0.59375 
Q 39.15625 -0.59375 35.59375 3.609375 
Q 32.03125 7.8125 32.03125 16.0625 
Q 32.03125 24.21875 35.453125 28.34375 
Q 38.875 32.46875 46.234375 32.46875 
z
M 52.875 16.0625 
Q 52.875 21.875 51.34375 24.53125 
Q 49.8125 27.203125 46.1875 27.203125 
Q 42.4375 27.203125 40.8125 24.609375 
Q 39.203125 22.015625 39.203125 16.0625 
Q 39.203125 10.40625 40.8125 7.671875 
Q 42.4375 4.9375 46.140625 4.9375 
Q 49.609375 4.9375 51.234375 7.640625 
Q 52.875 10.359375 52.875 16.0625 
z
" id="LiberationMono-37"/>
       <path d="M 16.3125 22.65625 
L 16.3125 30.46875 
L 43.65625 30.46875 
L 43.65625 22.65625 
z
" id="LiberationMono-45"/>
       <path d="M 53.078125 34.328125 
Q 53.078125 17.4375 46.578125 8.21875 
Q 40.09375 -0.984375 28.171875 -0.984375 
Q 20.125 -0.984375 15.265625 2.40625 
Q 10.40625 5.8125 8.296875 13.375 
L 16.703125 14.703125 
Q 19.34375 6.109375 28.328125 6.109375 
Q 35.84375 6.109375 40.0625 12.921875 
Q 44.28125 19.734375 44.390625 31.734375 
Q 42.4375 27.34375 37.6875 24.671875 
Q 32.953125 22.015625 27.296875 22.015625 
Q 18.0625 22.015625 12.46875 28.234375 
Q 6.890625 34.46875 6.890625 44.484375 
Q 6.890625 54.828125 13.015625 60.859375 
Q 19.140625 66.890625 29.78125 66.890625 
Q 53.078125 66.890625 53.078125 34.328125 
z
M 43.5 42.09375 
Q 43.5 49.953125 39.59375 54.859375 
Q 35.6875 59.765625 29.5 59.765625 
Q 23.140625 59.765625 19.484375 55.515625 
Q 15.828125 51.265625 15.828125 44.484375 
Q 15.828125 37.5 19.484375 33.21875 
Q 23.140625 28.953125 29.390625 28.953125 
Q 33.109375 28.953125 36.40625 30.640625 
Q 39.703125 32.328125 41.59375 35.328125 
Q 43.5 38.328125 43.5 42.09375 
z
" id="LiberationMono-57"/>
       <path d="M 12.640625 -17.71875 
L 20.90625 14.59375 
L 33.84375 14.59375 
L 18.65625 -17.71875 
z
" id="LiberationMono-44"/>
       <path d="M 25.921875 0 
L 25.921875 33.5 
Q 25.921875 41.015625 24.71875 44.015625 
Q 23.53125 47.015625 20.359375 47.015625 
Q 17.234375 47.015625 15.296875 42.328125 
Q 13.375 37.640625 13.375 29.640625 
L 13.375 0 
L 5.125 0 
L 5.125 41.546875 
Q 5.125 50.78125 4.828125 52.828125 
L 12.109375 52.828125 
L 12.40625 46.625 
L 12.40625 44.28125 
L 12.5 44.28125 
Q 14.15625 49.265625 16.6875 51.53125 
Q 19.234375 53.8125 23.046875 53.8125 
Q 27.34375 53.8125 29.46875 51.46875 
Q 31.59375 49.125 32.515625 44.234375 
L 32.625 44.234375 
Q 34.578125 49.421875 37.28125 51.609375 
Q 39.984375 53.8125 44.140625 53.8125 
Q 49.90625 53.8125 52.390625 49.609375 
Q 54.890625 45.40625 54.890625 35.203125 
L 54.890625 0 
L 46.6875 0 
L 46.6875 33.5 
Q 46.6875 41.015625 45.484375 44.015625 
Q 44.28125 47.015625 41.109375 47.015625 
Q 37.890625 47.015625 36 42.90625 
Q 34.125 38.8125 34.125 30.609375 
L 34.125 0 
z
" id="LiberationMono-109"/>
       <path d="M 53.765625 5.421875 
Q 55.03125 5.421875 56.640625 5.765625 
L 56.640625 0.296875 
Q 53.328125 -0.484375 49.859375 -0.484375 
Q 44.96875 -0.484375 42.75 2.078125 
Q 40.53125 4.640625 40.234375 10.109375 
L 39.9375 10.109375 
Q 36.765625 4.203125 32.4375 1.609375 
Q 28.125 -0.984375 21.78125 -0.984375 
Q 14.0625 -0.984375 10.15625 3.21875 
Q 6.25 7.421875 6.25 14.75 
Q 6.25 31.78125 28.421875 32.03125 
L 39.9375 32.234375 
L 39.9375 35.109375 
Q 39.9375 41.5 37.34375 44.3125 
Q 34.765625 47.125 29.109375 47.125 
Q 23.34375 47.125 20.796875 45.0625 
Q 18.265625 43.015625 17.78125 38.71875 
L 8.59375 39.546875 
Q 10.84375 53.8125 29.25 53.8125 
Q 39.015625 53.8125 43.921875 49.234375 
Q 48.828125 44.671875 48.828125 36.03125 
L 48.828125 13.28125 
Q 48.828125 9.375 49.84375 7.390625 
Q 50.875 5.421875 53.765625 5.421875 
z
M 24.03125 5.71875 
Q 28.71875 5.71875 32.328125 7.953125 
Q 35.9375 10.203125 37.9375 13.953125 
Q 39.9375 17.71875 39.9375 21.734375 
L 39.9375 26.078125 
L 30.671875 25.875 
Q 24.90625 25.78125 21.875 24.609375 
Q 18.84375 23.4375 17.15625 21.015625 
Q 15.484375 18.609375 15.484375 14.59375 
Q 15.484375 10.59375 17.65625 8.15625 
Q 19.828125 5.71875 24.03125 5.71875 
z
" id="LiberationMono-97"/>
       <path d="M 42.390625 0 
L 42.390625 33.9375 
Q 42.390625 40.578125 39.8125 43.796875 
Q 37.25 47.015625 31.640625 47.015625 
Q 25.59375 47.015625 21.703125 42.59375 
Q 17.828125 38.1875 17.828125 30.609375 
L 17.828125 0 
L 9.03125 0 
L 9.03125 41.546875 
Q 9.03125 50.78125 8.734375 52.828125 
L 17.046875 52.828125 
Q 17.09375 52.59375 17.140625 51.515625 
Q 17.1875 50.4375 17.25 49.046875 
Q 17.328125 47.65625 17.4375 43.796875 
L 17.578125 43.796875 
Q 22.703125 53.8125 34.46875 53.8125 
Q 42.921875 53.8125 47.0625 49.234375 
Q 51.21875 44.671875 51.21875 35.203125 
L 51.21875 0 
z
" id="LiberationMono-110"/>
       <path d="M 5.671875 41.796875 
L 5.671875 49.03125 
L 54.25 49.03125 
L 54.25 41.796875 
z
M 5.671875 16.796875 
L 5.671875 24.03125 
L 54.25 24.03125 
L 54.25 16.796875 
z
" id="LiberationMono-61"/>
      </defs>
      <use xlink:href="#LiberationMono-32"/>
      <use x="60.009766" xlink:href="#LiberationMono-53"/>
      <use x="120.019531" xlink:href="#LiberationMono-37"/>
      <use x="180.029297" xlink:href="#LiberationMono-45"/>
      <use x="240.039062" xlink:href="#LiberationMono-53"/>
      <use x="300.048828" xlink:href="#LiberationMono-48"/>
      <use x="360.058594" xlink:href="#LiberationMono-37"/>
      <use x="420.068359" xlink:href="#LiberationMono-45"/>
      <use x="480.078125" xlink:href="#LiberationMono-57"/>
      <use x="540.087891" xlink:href="#LiberationMono-53"/>
      <use x="600.097656" xlink:href="#LiberationMono-37"/>
      <use x="660.107422" xlink:href="#LiberationMono-44"/>
      <use x="720.117188" xlink:href="#LiberationMono-32"/>
      <use x="780.126953" xlink:href="#LiberationMono-109"/>
      <use x="840.136719" xlink:href="#LiberationMono-101"/>
      <use x="900.146484" xlink:href="#LiberationMono-97"/>
      <use x="960.15625" xlink:href="#LiberationMono-110"/>
      <use x="1020.166016" xlink:href="#LiberationMono-61"/>
      <use x="1080.175781" xlink:href="#LiberationMono-52"/>
      <use x="1140.185547" xlink:href="#LiberationMono-46"/>
      <use x="1200.195312" xlink:href="#LiberationMono-48"/>
      <use x="1260.205078" xlink:href="#LiberationMono-55"/>
      <use x="1320.214844" xlink:href="#LiberationMono-101"/>
      <use x="1380.224609" xlink:href="#LiberationMono-45"/>
      <use x="1440.234375" xlink:href="#LiberationMono-48"/>
      <use x="1500.244141" xlink:href="#LiberationMono-55"/>
     </g>
    </g>
    <g id="line2d_30">
     <path d="M 82.8 114.528 
L 106.8 114.528 
" style="fill:none;stroke:#feffb3;stroke-dasharray:5.55,2.4;stroke-dashoffset:0;stroke-width:1.5;"/>
    </g>
    <g id="line2d_31"/>
    <g id="text_17">
     <!-- Gamma $\alpha$=20.0 -->
     <g style="fill:#ffffff;" transform="translate(116.4 118.728)scale(0.12 -0.12)">
      <defs>
       <path d="M 53.765625 6.5 
Q 42.578125 -0.984375 31.203125 -0.984375 
Q 19 -0.984375 12.25 8.078125 
Q 5.515625 17.140625 5.515625 33.25 
Q 5.515625 50.203125 11.953125 58.546875 
Q 18.40625 66.890625 31.34375 66.890625 
Q 48.25 66.890625 53.859375 50.734375 
L 45.515625 48 
Q 41.609375 59.28125 31.453125 59.28125 
Q 23.1875 59.28125 19.25 53.125 
Q 15.328125 46.96875 15.328125 33.25 
Q 15.328125 6.59375 31.984375 6.59375 
Q 35.296875 6.59375 38.859375 7.609375 
Q 42.4375 8.640625 44.671875 10.203125 
L 44.671875 26.609375 
L 30.375 26.609375 
L 30.375 34.421875 
L 53.765625 34.421875 
z
" id="LiberationMono-71"/>
       <path d="M 40.921875 25.4375 
L 40.96875 36.71875 
Q 41.015625 48.25 32.328125 48.296875 
Q 25.828125 48.34375 21.78125 42.921875 
Q 16.703125 36.234375 14.984375 27.296875 
Q 12.890625 16.546875 15.53125 11.421875 
Q 18.265625 6.203125 24.171875 6.203125 
Q 30.71875 6.203125 36.234375 16.609375 
z
M 33.84375 55.90625 
Q 49.078125 56.15625 48.875 40.375 
Q 48.875 40.375 56.5 54.6875 
L 64.5 54.6875 
L 48.734375 25.046875 
L 48.578125 14.359375 
Q 48.578125 11.96875 49.90625 9.96875 
Q 51.421875 7.625 52.984375 7.625 
L 57.328125 7.625 
L 55.859375 0 
L 50.4375 0 
Q 45.84375 0 42.53125 4.109375 
Q 40.96875 6.15625 40.921875 10.453125 
Q 37.75 5.21875 32.28125 0.78125 
Q 29.6875 -1.265625 22.703125 -1.21875 
Q 11.28125 -1.125 7.125 6.203125 
Q 2.875 13.8125 5.515625 27.296875 
Q 8.34375 41.796875 15.765625 48.390625 
Q 24.125 55.765625 33.84375 55.90625 
z
" id="DejaVuSans-Oblique-945"/>
      </defs>
      <use transform="translate(0 0.109375)" xlink:href="#LiberationMono-71"/>
      <use transform="translate(60.009766 0.109375)" xlink:href="#LiberationMono-97"/>
      <use transform="translate(120.019531 0.109375)" xlink:href="#LiberationMono-109"/>
      <use transform="translate(180.029297 0.109375)" xlink:href="#LiberationMono-109"/>
      <use transform="translate(240.039062 0.109375)" xlink:href="#LiberationMono-97"/>
      <use transform="translate(300.048828 0.109375)" xlink:href="#LiberationMono-32"/>
      <use transform="translate(360.058594 0.109375)" xlink:href="#DejaVuSans-Oblique-945"/>
      <use transform="translate(425.976562 0.109375)" xlink:href="#LiberationMono-61"/>
      <use transform="translate(485.986328 0.109375)" xlink:href="#LiberationMono-50"/>
      <use transform="translate(545.996094 0.109375)" xlink:href="#LiberationMono-48"/>
      <use transform="translate(606.005859 0.109375)" xlink:href="#LiberationMono-46"/>
      <use transform="translate(666.015625 0.109375)" xlink:href="#LiberationMono-48"/>
     </g>
    </g>
    <g id="line2d_32">
     <path d="M 82.8 131.71425 
L 106.8 131.71425 
" style="fill:none;stroke:#bfbbd9;stroke-dasharray:5.55,2.4;stroke-dashoffset:0;stroke-width:1.5;"/>
    </g>
    <g id="line2d_33"/>
    <g id="text_18">
     <!-- Beta $\alpha$=20.0 -->
     <g style="fill:#ffffff;" transform="translate(116.4 135.91425)scale(0.12 -0.12)">
      <defs>
       <path d="M 56.25 18.5625 
Q 56.25 9.765625 49.5625 4.875 
Q 42.875 0 30.953125 0 
L 7.90625 0 
L 7.90625 65.875 
L 28.03125 65.875 
Q 52.25 65.875 52.25 49.90625 
Q 52.25 43.953125 48.734375 39.9375 
Q 45.21875 35.9375 39.15625 34.71875 
Q 47.3125 33.84375 51.78125 29.484375 
Q 56.25 25.140625 56.25 18.5625 
z
M 42.875 48.734375 
Q 42.875 53.953125 39.1875 56.171875 
Q 35.5 58.40625 28.125 58.40625 
L 17.234375 58.40625 
L 17.234375 38.09375 
L 28.21875 38.09375 
Q 42.875 38.09375 42.875 48.734375 
z
M 46.828125 19.390625 
Q 46.828125 24.953125 42.484375 27.875 
Q 38.140625 30.8125 29.546875 30.8125 
L 17.234375 30.8125 
L 17.234375 7.46875 
L 30.21875 7.46875 
Q 38.765625 7.46875 42.796875 10.421875 
Q 46.828125 13.375 46.828125 19.390625 
z
" id="LiberationMono-66"/>
       <path d="M 9.28125 45.90625 
L 9.28125 52.828125 
L 17.578125 52.828125 
L 20.40625 66.609375 
L 26.265625 66.609375 
L 26.265625 52.828125 
L 47.359375 52.828125 
L 47.359375 45.90625 
L 26.265625 45.90625 
L 26.265625 14.0625 
Q 26.265625 10.203125 28.34375 8.34375 
Q 30.421875 6.5 35.15625 6.5 
Q 41.703125 6.5 49.65625 8.15625 
L 49.65625 1.46875 
Q 41.40625 -0.78125 33.296875 -0.78125 
Q 25.390625 -0.78125 21.4375 2.5625 
Q 17.484375 5.90625 17.484375 13.140625 
L 17.484375 45.90625 
z
" id="LiberationMono-116"/>
      </defs>
      <use transform="translate(0 0.109375)" xlink:href="#LiberationMono-66"/>
      <use transform="translate(60.009766 0.109375)" xlink:href="#LiberationMono-101"/>
      <use transform="translate(120.019531 0.109375)" xlink:href="#LiberationMono-116"/>
      <use transform="translate(180.029297 0.109375)" xlink:href="#LiberationMono-97"/>
      <use transform="translate(240.039062 0.109375)" xlink:href="#LiberationMono-32"/>
      <use transform="translate(300.048828 0.109375)" xlink:href="#DejaVuSans-Oblique-945"/>
      <use transform="translate(365.966797 0.109375)" xlink:href="#LiberationMono-61"/>
      <use transform="translate(425.976562 0.109375)" xlink:href="#LiberationMono-50"/>
      <use transform="translate(485.986328 0.109375)" xlink:href="#LiberationMono-48"/>
      <use transform="translate(545.996094 0.109375)" xlink:href="#LiberationMono-46"/>
      <use transform="translate(606.005859 0.109375)" xlink:href="#LiberationMono-48"/>
     </g>
    </g>
    <g id="line2d_34">
     <path d="M 82.8 148.9005 
L 106.8 148.9005 
" style="fill:none;stroke:#fa8174;stroke-dasharray:5.55,2.4;stroke-dashoffset:0;stroke-width:1.5;"/>
    </g>
    <g id="line2d_35"/>
    <g id="text_19">
     <!-- Lognorm EF=1.2327 -->
     <g style="fill:#ffffff;" transform="translate(116.4 153.1005)scale(0.12 -0.12)">
      <defs>
       <path d="M 53.5625 26.46875 
Q 53.5625 13.140625 47.4375 6.078125 
Q 41.3125 -0.984375 29.734375 -0.984375 
Q 18.40625 -0.984375 12.375 6.140625 
Q 6.34375 13.28125 6.34375 26.46875 
Q 6.34375 40.09375 12.515625 46.953125 
Q 18.703125 53.8125 30.03125 53.8125 
Q 41.9375 53.8125 47.75 47.015625 
Q 53.5625 40.234375 53.5625 26.46875 
z
M 44.34375 26.46875 
Q 44.34375 36.96875 40.984375 42.140625 
Q 37.640625 47.3125 30.171875 47.3125 
Q 22.609375 47.3125 19.09375 42.03125 
Q 15.578125 36.765625 15.578125 26.46875 
Q 15.578125 16.21875 19.09375 10.859375 
Q 22.609375 5.515625 29.640625 5.515625 
Q 37.40625 5.515625 40.875 10.734375 
Q 44.34375 15.96875 44.34375 26.46875 
z
" id="LiberationMono-111"/>
       <path d="M 30.03125 -20.703125 
Q 21.828125 -20.703125 16.84375 -17.328125 
Q 11.859375 -13.96875 10.5 -7.671875 
L 19.484375 -6.453125 
Q 20.3125 -10.109375 23.0625 -12.078125 
Q 25.828125 -14.0625 30.328125 -14.0625 
Q 42.4375 -14.0625 42.4375 1.3125 
L 42.4375 10.796875 
L 42.328125 10.796875 
Q 39.9375 5.765625 35.6875 3.171875 
Q 31.453125 0.59375 25.59375 0.59375 
Q 15.921875 0.59375 11.453125 6.90625 
Q 6.984375 13.234375 6.984375 26.8125 
Q 6.984375 40.625 11.765625 47.140625 
Q 16.546875 53.65625 26.515625 53.65625 
Q 32.03125 53.65625 36.109375 51.09375 
Q 40.1875 48.53125 42.390625 43.796875 
L 42.53125 43.796875 
Q 42.53125 45.265625 42.71875 48.75 
Q 42.921875 52.25 43.109375 52.828125 
L 51.46875 52.828125 
Q 51.171875 50.203125 51.171875 41.890625 
L 51.171875 1.5625 
Q 51.171875 -9.515625 46 -15.109375 
Q 40.828125 -20.703125 30.03125 -20.703125 
z
M 42.4375 26.90625 
Q 42.4375 36.328125 38.765625 41.71875 
Q 35.109375 47.125 28.71875 47.125 
Q 22.015625 47.125 19.03125 42.453125 
Q 16.0625 37.796875 16.0625 26.90625 
Q 16.0625 19.53125 17.3125 15.25 
Q 18.5625 10.984375 21.1875 9.03125 
Q 23.828125 7.078125 28.5625 7.078125 
Q 32.71875 7.078125 35.859375 9.390625 
Q 39.015625 11.71875 40.71875 16.1875 
Q 42.4375 20.65625 42.4375 26.90625 
z
" id="LiberationMono-103"/>
       <path d="M 51.03125 44.828125 
Q 45.5625 45.75 40.671875 45.75 
Q 32.8125 45.75 27.96875 39.84375 
Q 23.140625 33.9375 23.140625 24.8125 
L 23.140625 0 
L 14.359375 0 
L 14.359375 34.234375 
Q 14.359375 37.9375 13.6875 42.96875 
Q 13.03125 48 11.8125 52.828125 
L 20.171875 52.828125 
Q 22.125 46.09375 22.515625 40.625 
L 22.75 40.625 
Q 25.203125 46.09375 27.546875 48.65625 
Q 29.890625 51.21875 33.109375 52.515625 
Q 36.328125 53.8125 40.96875 53.8125 
Q 46.046875 53.8125 51.03125 52.984375 
z
" id="LiberationMono-114"/>
       <path d="M 7.90625 0 
L 7.90625 65.875 
L 52.78125 65.875 
L 52.78125 58.25 
L 17.234375 58.25 
L 17.234375 37.640625 
L 49.859375 37.640625 
L 49.859375 30.125 
L 17.234375 30.125 
L 17.234375 7.625 
L 54.78125 7.625 
L 54.78125 0 
z
" id="LiberationMono-69"/>
      </defs>
      <use xlink:href="#LiberationMono-76"/>
      <use x="60.009766" xlink:href="#LiberationMono-111"/>
      <use x="120.019531" xlink:href="#LiberationMono-103"/>
      <use x="180.029297" xlink:href="#LiberationMono-110"/>
      <use x="240.039062" xlink:href="#LiberationMono-111"/>
      <use x="300.048828" xlink:href="#LiberationMono-114"/>
      <use x="360.058594" xlink:href="#LiberationMono-109"/>
      <use x="420.068359" xlink:href="#LiberationMono-32"/>
      <use x="480.078125" xlink:href="#LiberationMono-69"/>
      <use x="540.087891" xlink:href="#LiberationMono-70"/>
      <use x="600.097656" xlink:href="#LiberationMono-61"/>
      <use x="660.107422" xlink:href="#LiberationMono-49"/>
      <use x="720.117188" xlink:href="#LiberationMono-46"/>
      <use x="780.126953" xlink:href="#LiberationMono-50"/>
      <use x="840.136719" xlink:href="#LiberationMono-51"/>
      <use x="900.146484" xlink:href="#LiberationMono-50"/>
      <use x="960.15625" xlink:href="#LiberationMono-55"/>
     </g>
    </g>
    <g id="line2d_36">
     <path d="M 82.8 166.08675 
L 106.8 166.08675 
" style="fill:none;stroke:#81b1d2;stroke-dasharray:5.55,2.4;stroke-dashoffset:0;stroke-width:1.5;"/>
    </g>
    <g id="line2d_37"/>
    <g id="text_20">
     <!-- Norm $\sigma$=9.452e-08 -->
     <g style="fill:#ffffff;" transform="translate(116.4 170.28675)scale(0.12 -0.12)">
      <defs>
       <path d="M 34.671875 47.5625 
Q 27.25 47.5625 22.21875 42.1875 
Q 16.890625 36.578125 15.140625 27.296875 
Q 13.1875 17.484375 16.3125 11.8125 
Q 19.390625 6.203125 26.65625 6.203125 
Q 33.84375 6.203125 39.109375 11.859375 
Q 44.4375 17.53125 46.34375 27.296875 
Q 48.046875 36.234375 45.015625 42.1875 
Q 42.1875 47.5625 34.671875 47.5625 
z
M 36.078125 54.734375 
L 65.921875 54.6875 
L 64.15625 45.703125 
L 54.109375 45.703125 
Q 57.90625 38.09375 55.859375 27.296875 
Q 53.21875 13.875 45.0625 6.25 
Q 36.859375 -1.421875 25.140625 -1.421875 
Q 13.375 -1.421875 8.203125 6.25 
Q 3.03125 13.875 5.671875 27.296875 
Q 8.25 40.765625 16.40625 48.390625 
Q 23.1875 54.734375 36.078125 54.734375 
z
" id="DejaVuSans-Oblique-963"/>
      </defs>
      <use transform="translate(0 0.109375)" xlink:href="#LiberationMono-78"/>
      <use transform="translate(60.009766 0.109375)" xlink:href="#LiberationMono-111"/>
      <use transform="translate(120.019531 0.109375)" xlink:href="#LiberationMono-114"/>
      <use transform="translate(180.029297 0.109375)" xlink:href="#LiberationMono-109"/>
      <use transform="translate(240.039062 0.109375)" xlink:href="#LiberationMono-32"/>
      <use transform="translate(300.048828 0.109375)" xlink:href="#DejaVuSans-Oblique-963"/>
      <use transform="translate(363.427734 0.109375)" xlink:href="#LiberationMono-61"/>
      <use transform="translate(423.4375 0.109375)" xlink:href="#LiberationMono-57"/>
      <use transform="translate(483.447266 0.109375)" xlink:href="#LiberationMono-46"/>
      <use transform="translate(543.457031 0.109375)" xlink:href="#LiberationMono-52"/>
      <use transform="translate(603.466797 0.109375)" xlink:href="#LiberationMono-53"/>
      <use transform="translate(663.476562 0.109375)" xlink:href="#LiberationMono-50"/>
      <use transform="translate(723.486328 0.109375)" xlink:href="#LiberationMono-101"/>
      <use transform="translate(783.496094 0.109375)" xlink:href="#LiberationMono-45"/>
      <use transform="translate(843.505859 0.109375)" xlink:href="#LiberationMono-48"/>
      <use transform="translate(903.515625 0.109375)" xlink:href="#LiberationMono-56"/>
     </g>
    </g>
   </g>
  </g>
 </g>
 <defs>
  <clipPath id="p74352da0a6">
   <rect height="434.88" width="446.4" x="72" y="69.12"/>
  </clipPath>
 </defs>
</svg>
